<svg xmlns="http://www.w3.org/2000/svg" width="120" height="120" viewBox="0 0 120 120">
  <g id="best-data-security-and-privacy" transform="translate(-1078 -885)">
    <circle id="Ellipse_1992" data-name="Ellipse 1992" cx="60" cy="60" r="60" transform="translate(1078 885)" fill="#def4e9"/>
    <circle id="Ellipse_1999" data-name="Ellipse 1999" cx="50" cy="50" r="50" transform="translate(1088 895)" fill="#a1f6cc"/>
    <g id="Group_5295" data-name="Group 5295" transform="translate(2287.25 939.332)">
      <g id="Group_5294" data-name="Group 5294" transform="translate(-1175.25 -19.332)">
        <path id="Path_5536" data-name="Path 5536" d="M-1175.25-12.651c.083-.341.16-.683.251-1.021a7.6,7.6,0,0,1,7.474-5.654q11.271-.013,22.542,0c3.215,0,6.431-.007,9.646,0a7.5,7.5,0,0,1,7.649,6.473,7.311,7.311,0,0,1-3.027,7.248c-.08.062-.166.117-.249.175l-.27.193c.224.162.426.3.617.449a1.077,1.077,0,0,1,.266,1.524,1.048,1.048,0,0,1-1.526.223,5.94,5.94,0,0,0-3.713-1.1q-15.993.033-31.985.013a5.355,5.355,0,0,0-5.5,5.113,5.382,5.382,0,0,0,5.2,5.659c4.332.012,8.665,0,13,.006.809,0,1.327.473,1.293,1.163a1.119,1.119,0,0,1-1.2,1.055c-1.049.011-2.1,0-3.148,0-3.283,0-6.566-.005-9.849,0a5.378,5.378,0,0,0-5.313,5.31,5.356,5.356,0,0,0,5.111,5.455c4.3.062,8.6.023,12.9.032a2.96,2.96,0,0,1,.7.064,1.014,1.014,0,0,1,.776,1.053,1.015,1.015,0,0,1-.782,1,2.732,2.732,0,0,1-.653.063q-6.194.005-12.388,0a7.58,7.58,0,0,1-7.745-6.5.769.769,0,0,0-.083-.177V13.349a.7.7,0,0,0,.082-.177,7.509,7.509,0,0,1,3.323-5.234c.065-.045.124-.1.17-.137-.007-.053,0-.077-.012-.084-.12-.092-.241-.183-.364-.272A7.581,7.581,0,0,1-1175,3.2c-.092-.338-.168-.68-.251-1.021V.349a1.122,1.122,0,0,0,.089-.227,7.5,7.5,0,0,1,3.191-5.1c.105-.075.208-.155.35-.26-.169-.126-.3-.225-.431-.32A7.583,7.583,0,0,1-1175-9.8c-.092-.338-.168-.68-.251-1.021Zm23.819,6.3q8.173,0,16.345,0a5.376,5.376,0,0,0,5.332-5.233,5.4,5.4,0,0,0-5.581-5.558q-16.091-.015-32.182.008a6.278,6.278,0,0,0-1.845.268A5.394,5.394,0,0,0-1173-10.805a5.377,5.377,0,0,0,5.278,4.455Q-1159.578-6.342-1151.431-6.349Z" transform="translate(1175.25 19.332)" fill="#066759"/>
        <path id="Path_5537" data-name="Path 5537" d="M-970.569,155.562a30.866,30.866,0,0,1-5.293-3.163,19.28,19.28,0,0,1-6.19-7.384,13.283,13.283,0,0,1-1.209-5.452c-.011-3.011,0-6.022,0-9.033a1.13,1.13,0,0,1,.912-1.278c3.823-1.291,7.643-2.59,11.475-3.854a2.069,2.069,0,0,1,1.214-.007q5.7,1.877,11.374,3.835a4.357,4.357,0,0,1,1.023.742V140.53l-.092.391a30.038,30.038,0,0,1-.792,3.238,17.906,17.906,0,0,1-6.035,7.865,29.838,29.838,0,0,1-5.776,3.537Zm11.216-19.517-.069,0c0-1.49-.011-2.979.008-4.468a.529.529,0,0,0-.433-.608c-3.349-1.117-6.691-2.256-10.04-3.373a1.222,1.222,0,0,0-.723-.005c-3.35,1.116-6.692,2.256-10.041,3.374a.56.56,0,0,0-.463.635c.018,2.539.008,5.078.01,7.617a11.664,11.664,0,0,0,1.582,5.959,21.086,21.086,0,0,0,9.036,7.983.711.711,0,0,0,.556-.046,23.9,23.9,0,0,0,6.74-4.983,12.545,12.545,0,0,0,3.592-7.019C-959.4,139.434-959.427,137.733-959.353,136.044Z" transform="translate(1009.264 -105.717)" fill="#066759"/>
        <path id="Path_5538" data-name="Path 5538" d="M-1047.159,111.987a3.235,3.235,0,0,1,3.272-3.226,3.269,3.269,0,0,1,3.219,3.244,3.272,3.272,0,0,1-3.263,3.253A3.24,3.24,0,0,1-1047.159,111.987Zm4.3.022a1.075,1.075,0,0,0-1.043-1.082,1.092,1.092,0,0,0-1.1,1.081,1.093,1.093,0,0,0,1.1,1.083A1.075,1.075,0,0,0-1042.855,112.01Z" transform="translate(1064.505 -91.415)" fill="#066759"/>
        <path id="Path_5539" data-name="Path 5539" d="M-1047.159,207.992a3.235,3.235,0,0,1,3.268-3.23,3.269,3.269,0,0,1,3.223,3.24,3.272,3.272,0,0,1-3.259,3.257A3.24,3.24,0,0,1-1047.159,207.992Zm4.3.026a1.079,1.079,0,0,0-1.086-1.092A1.1,1.1,0,0,0-1045,208a1.094,1.094,0,0,0,1.095,1.091A1.077,1.077,0,0,0-1042.855,208.017Z" transform="translate(1064.505 -174.415)" fill="#066759"/>
        <path id="Path_5540" data-name="Path 5540" d="M-1123.973,115.256a3.259,3.259,0,0,1-3.266-3.244,3.256,3.256,0,0,1,3.255-3.254,3.257,3.257,0,0,1,3.241,3.217A3.259,3.259,0,0,1-1123.973,115.256Zm1.063-3.242a1.106,1.106,0,0,0-1.05-1.089,1.1,1.1,0,0,0-1.113,1.076,1.106,1.106,0,0,0,1.05,1.089A1.105,1.105,0,0,0-1122.909,112.014Z" transform="translate(1133.74 -91.413)" fill="#066759"/>
        <path id="Path_5541" data-name="Path 5541" d="M-1120.742,208a3.259,3.259,0,0,1-3.258,3.253,3.259,3.259,0,0,1-3.239-3.271,3.258,3.258,0,0,1,3.232-3.226A3.256,3.256,0,0,1-1120.742,208Zm-2.167.043a1.1,1.1,0,0,0-1.018-1.118,1.1,1.1,0,0,0-1.146,1.04,1.1,1.1,0,0,0,1.017,1.118A1.1,1.1,0,0,0-1122.909,208.046Z" transform="translate(1133.74 -174.413)" fill="#066759"/>
        <path id="Path_5542" data-name="Path 5542" d="M-1047.159,16a3.235,3.235,0,0,1,3.256-3.242,3.268,3.268,0,0,1,3.235,3.228,3.272,3.272,0,0,1-3.247,3.269A3.239,3.239,0,0,1-1047.159,16Zm4.3.027a1.08,1.08,0,0,0-1.073-1.1A1.1,1.1,0,0,0-1045,15.988a1.1,1.1,0,0,0,1.082,1.1A1.08,1.08,0,0,0-1042.854,16.03Z" transform="translate(1064.505 -8.415)" fill="#066759"/>
        <path id="Path_5543" data-name="Path 5543" d="M-1123.991,19.256a3.26,3.26,0,0,1-3.248-3.262,3.257,3.257,0,0,1,3.273-3.236,3.258,3.258,0,0,1,3.223,3.235A3.258,3.258,0,0,1-1123.991,19.256Zm.005-4.331a1.1,1.1,0,0,0-1.087,1.051A1.1,1.1,0,0,0-1124,17.089a1.1,1.1,0,0,0,1.087-1.1A1.105,1.105,0,0,0-1123.986,14.925Z" transform="translate(1133.74 -8.413)" fill="#066759"/>
        <path id="Path_5544" data-name="Path 5544" d="M-929.622,203.821l6.4-6.408a4.683,4.683,0,0,1,.4-.383,1.062,1.062,0,0,1,1.431.058,1.068,1.068,0,0,1,.1,1.43,3.214,3.214,0,0,1-.309.335q-3.551,3.553-7.1,7.1c-.812.812-1.369.776-2.093-.13-1.32-1.65-2.648-3.295-3.952-4.958a1.733,1.733,0,0,1-.366-.857.941.941,0,0,1,.708-1,1.079,1.079,0,0,1,1.261.4q1.469,1.845,2.944,3.685C-930.022,203.328-929.842,203.549-929.622,203.821Z" transform="translate(967.636 -167.516)" fill="#066759"/>
      </g>
    </g>
  </g>
</svg>
