<svg xmlns="http://www.w3.org/2000/svg" width="120" height="120" viewBox="0 0 120 120">
  <g id="global-matrimonial-platform" transform="translate(-302 -885)">
    <circle id="Ellipse_1992" data-name="Ellipse 1992" cx="60" cy="60" r="60" transform="translate(302 885)" fill="#def4e9"/>
    <circle id="Ellipse_1999" data-name="Ellipse 1999" cx="50" cy="50" r="50" transform="translate(312 895)" fill="#a1f6cc"/>
    <g id="Group_5288" data-name="Group 5288" transform="translate(336 919)">
      <path id="Path_5508" data-name="Path 5508" d="M-420.625,117.6a3.53,3.53,0,0,1,2.322,1.724,3.206,3.206,0,0,1-1.526,4.4,3.2,3.2,0,0,1-4.275-1.754,3.183,3.183,0,0,1,1.995-4.2c.159-.05.313-.114.469-.171Zm-.486,4.877a1.68,1.68,0,0,0,1.654-1.694,1.689,1.689,0,0,0-1.7-1.656,1.688,1.688,0,0,0-1.653,1.7A1.678,1.678,0,0,0-421.112,122.477Z" transform="translate(447.136 -117.6)" fill="#066759"/>
      <path id="Path_5509" data-name="Path 5509" d="M-506.6,233.379c0-.767.015-1.389-.011-2.01a.754.754,0,0,0-.235-.418c-.433-.452-.884-.888-1.324-1.333a1.512,1.512,0,0,1-.2-2.256c.225-.336.455-.67.721-1.062-2.013-.932-4.249-1.49-5.387-3.686l-.209.134c.205,1.01.359,2.033.628,3.025a11.927,11.927,0,0,0,2.014,4.011c.061.081.123.162.178.247a.768.768,0,0,1-.108,1.126.744.744,0,0,1-1.1-.226,19.1,19.1,0,0,1-1.528-2.447,14.163,14.163,0,0,1,.9-14.53,13.88,13.88,0,0,1,10-6.369,14.1,14.1,0,0,1,10.952,2.779,13.812,13.812,0,0,1,5.641,9.678A14.168,14.168,0,0,1-492,234.121a14.543,14.543,0,0,1-16.99-.55c-.446-.349-.554-.764-.3-1.136s.723-.415,1.208-.082C-507.623,232.667-507.168,232.983-506.6,233.379Zm-3.217-9.708c1.01.447,2.011.894,3.018,1.329a.59.59,0,0,0,.387.031,1.767,1.767,0,0,1,1.586.276c1.045.658,2.1,1.3,3.144,1.958a2.407,2.407,0,0,1,.991,3.361c-.447.948-.908,1.889-1.362,2.833-.208.434-.413.87-.7,1.472,1.3.033,2.481.137,3.652.078a12.136,12.136,0,0,0,5.78-1.858.5.5,0,0,0,.186-.4c-.12-1.144-.265-2.285-.4-3.426-.07-.579-.143-1.157-.219-1.774-.474.077-.872.138-1.27.206a1.629,1.629,0,0,1-1.9-.9c-.291-.534-.561-1.08-.83-1.626a2.266,2.266,0,0,1,.025-2.283,8.433,8.433,0,0,1,2.107-2.871c-.6-.488-.634-.748-.283-1.433a2.807,2.807,0,0,0,.412-1.161,2.233,2.233,0,0,1,1.552-2.3,4.735,4.735,0,0,0,.537-.286l3.021-1.621-1.1-1.157c-.312.452-.575.844-.851,1.227-.331.46-.753.581-1.124.335-.394-.261-.443-.707-.12-1.2.275-.42.561-.833.851-1.263a12.6,12.6,0,0,0-4.2-1.884c-.041.23-.09.425-.11.623a3.025,3.025,0,0,1-1.242,2.233,11.047,11.047,0,0,0-1.272,1.089c-1.1,1.111-2.175.831-2.594-.71-.3-1.1-.754-2.156-1.173-3.325l-3.135,1.248a2.57,2.57,0,0,1-.454,3.273c-.314.326-.6.68-.933,1.061l.7.407c.058-.1.1-.169.14-.241a1.57,1.57,0,0,1,2.706-.4c.3.3.584.613.869.925a1.611,1.611,0,0,1,.033,2.433c-1.1,1.282-2.241,2.539-3.311,3.849a2.437,2.437,0,0,1-2.124,1.051A.84.84,0,0,0-509.813,223.671Zm18.143,8.305a13.4,13.4,0,0,0,3.973-5.8,1.6,1.6,0,0,0-.194-1.734,3.627,3.627,0,0,1-.576-.951,1.956,1.956,0,0,0-2.237-1.411,5.794,5.794,0,0,1-.959-.069,1.893,1.893,0,0,1-1.448-.72.7.7,0,0,0-.536-.183,2.307,2.307,0,0,0-2.083,1.439,6.82,6.82,0,0,1-.608.993.973.973,0,0,0-.04,1.054c.242.464.486.928.708,1.4a.4.4,0,0,0,.52.248,9.135,9.135,0,0,1,1.251-.188,1.505,1.505,0,0,1,1.652,1.309c.086.516.137,1.038.2,1.558C-491.923,229.9-491.8,230.888-491.67,231.976ZM-505.5,215.511c-.639,1.012-1.052,1.323-1.79,1.2a3.429,3.429,0,0,1-1.108-.461,1.578,1.578,0,0,1-.444-2.6c.34-.4.7-.782,1.031-1.188a.805.805,0,0,0,.091-1.048.444.444,0,0,0-.12.036,12.994,12.994,0,0,0-5.2,8.626.422.422,0,0,0,.022.29c.626.759,1.263,1.508,1.809,2.155a7.773,7.773,0,0,1,1.277-1.033,5.239,5.239,0,0,1,1.241-.2,1.226,1.226,0,0,0,.64-.3c1.18-1.328,2.335-2.676,3.5-4.021a2.339,2.339,0,0,0,.17-.263Zm-.391,10.924-1.347,1.978c.592.584,1.2,1.124,1.727,1.733a1.913,1.913,0,0,1,.423,1.023c.064.722.019,1.453.019,2.18,0,.838,0,.838.9,1.022.725-1.514,1.458-3.033,2.18-4.558a.835.835,0,0,0-.33-1.15C-503.49,227.919-504.67,227.2-505.894,226.435Zm17.232-6.876a9.4,9.4,0,0,0,1.594,3.24,12.966,12.966,0,0,0-2.336-8.314c-1.438.768-2.826,1.5-4.2,2.254-.141.077-.22.269-.381.478.209.013.259.02.308.018a.86.86,0,0,0,.2-.023,3.412,3.412,0,0,1,3.2.634,1.516,1.516,0,0,0,.433.259.844.844,0,0,0,.5.033c.7-.255,1.057-.208,1.285.215s.063.772-.563,1.158C-488.638,219.52-488.646,219.538-488.662,219.56Zm-9.855-10.566h-3.256l1.138,3.207C-499.667,211.253-498.271,210.713-498.517,208.993Zm8.66,11.621c-.24-.442-.336-.856-.6-1.054-.876-.669-1.806-1.281-3.005-.809a.45.45,0,0,1-.1.011c-.787.106-.879.186-1.144,1.015a5.213,5.213,0,0,0,.548-.124,1.778,1.778,0,0,1,2.235.652.453.453,0,0,0,.287.168C-491.1,220.528-490.562,220.561-489.857,220.614Z" transform="translate(526.076 -196.004)" fill="#066759"/>
      <path id="Path_5510" data-name="Path 5510" d="M-578.054,160.538a.774.774,0,0,1-.85-1.019A22.907,22.907,0,0,1-576.4,153.5a23.392,23.392,0,0,1,12.68-10.306c.526-.184,1.064-.333,1.6-.48a.76.76,0,0,1,1.016.486.77.77,0,0,1-.594.965c-1.19.429-2.422.768-3.564,1.3A21.7,21.7,0,0,0-577.24,159.22a5,5,0,0,1-.358,1C-577.7,160.391-577.959,160.475-578.054,160.538Z" transform="translate(582.118 -139.491)" fill="#066759"/>
      <path id="Path_5511" data-name="Path 5511" d="M-359.618,142.014c.684.2,1.227.333,1.751.518a23.336,23.336,0,0,1,15.43,16.338.772.772,0,0,1-.473,1.065c-.445.129-.818-.093-.973-.64a22.555,22.555,0,0,0-2.642-6.065,21.868,21.868,0,0,0-12.4-9.433,8.113,8.113,0,0,1-.912-.3.624.624,0,0,1-.371-.838C-360.091,142.391-359.8,142.2-359.618,142.014Z" transform="translate(391.208 -138.914)" fill="#066759"/>
      <path id="Path_5512" data-name="Path 5512" d="M-359.575,379.373c-.219-.22-.518-.4-.638-.669a.635.635,0,0,1,.352-.849,4.094,4.094,0,0,1,.62-.216A21.845,21.845,0,0,0-344,362.4c.045-.145.077-.3.129-.437a.765.765,0,0,1,.99-.549.737.737,0,0,1,.447.993,42,42,0,0,1-1.722,4.539,22.994,22.994,0,0,1-11.906,11.179c-1.021.437-2.105.727-3.161,1.084-.08.027-.163.043-.244.064Z" transform="translate(391.217 -330.416)" fill="#066759"/>
      <path id="Path_5513" data-name="Path 5513" d="M-561.049,378.35c.008.722-.44,1.045-1.014.9a22.776,22.776,0,0,1-6.015-2.507,23.4,23.4,0,0,1-10.308-12.677c-.184-.525-.332-1.064-.477-1.6a.756.756,0,0,1,.482-1.017.75.75,0,0,1,.96.6,23.259,23.259,0,0,0,1.922,4.84,21.846,21.846,0,0,0,13.137,10.7,3.886,3.886,0,0,1,.86.29A2,2,0,0,1-561.049,378.35Z" transform="translate(582.087 -330.449)" fill="#066759"/>
      <path id="Path_5514" data-name="Path 5514" d="M-597.572,300.4a3.218,3.218,0,0,1-3.2,3.2,3.227,3.227,0,0,1-3.2-3.2,3.229,3.229,0,0,1,3.2-3.2A3.217,3.217,0,0,1-597.572,300.4Zm-1.524.017a1.679,1.679,0,0,0-1.653-1.694,1.689,1.689,0,0,0-1.7,1.656,1.689,1.689,0,0,0,1.658,1.695A1.68,1.68,0,0,0-599.1,300.421Z" transform="translate(603.969 -274.395)" fill="#066759"/>
      <path id="Path_5515" data-name="Path 5515" d="M-238.413,300.4a3.228,3.228,0,0,1-3.207,3.194,3.216,3.216,0,0,1-3.191-3.205,3.218,3.218,0,0,1,3.2-3.195A3.227,3.227,0,0,1-238.413,300.4Zm-4.874-.005a1.682,1.682,0,0,0,1.673,1.676,1.691,1.691,0,0,0,1.677-1.677,1.691,1.691,0,0,0-1.677-1.676A1.682,1.682,0,0,0-243.286,300.4Z" transform="translate(290.419 -274.39)" fill="#066759"/>
      <path id="Path_5516" data-name="Path 5516" d="M-421.207,476.79a3.216,3.216,0,0,1,3.2,3.191,3.227,3.227,0,0,1-3.194,3.207,3.228,3.228,0,0,1-3.206-3.2A3.218,3.218,0,0,1-421.207,476.79Zm1.68,3.178a1.679,1.679,0,0,0-1.694-1.654,1.68,1.68,0,0,0-1.657,1.691,1.689,1.689,0,0,0,1.694,1.658A1.689,1.689,0,0,0-419.527,479.968Z" transform="translate(447.205 -431.178)" fill="#066759"/>
      <path id="Path_5517" data-name="Path 5517" d="M-440.5,232a2.3,2.3,0,0,1,.545.485,9.983,9.983,0,0,1,.663,1.308.749.749,0,0,1-.3,1.046.734.734,0,0,1-1.055-.379,14.133,14.133,0,0,1-.7-1.459C-441.534,232.516-441.171,232.019-440.5,232Z" transform="translate(462.038 -217.477)" fill="#066759"/>
      <path id="Path_5518" data-name="Path 5518" d="M-380.078,249.558a1.34,1.34,0,0,1,1.1,1.09.75.75,0,0,1-.788.743,1.377,1.377,0,0,1-1.07-1.12A.738.738,0,0,1-380.078,249.558Z" transform="translate(409.175 -232.801)" fill="#066759"/>
    </g>
  </g>
</svg>
