<svg xmlns="http://www.w3.org/2000/svg" width="44" height="44" viewBox="0 0 44 44">
  <g id="mail" transform="translate(-523 -2041)">
    <rect id="Rectangle_745" data-name="Rectangle 745" width="44" height="44" rx="22" transform="translate(523 2041)" fill="#def4e9"/>
    <rect id="Rectangle_746" data-name="Rectangle 746" width="36" height="36" rx="18" transform="translate(527 2045)" fill="#a1f6cc"/>
    <g id="Group_5353" data-name="Group 5353" transform="translate(1139.01 1350.506)">
      <g id="Group_5352" data-name="Group 5352" transform="translate(-603.009 706.494)">
        <path id="Path_5547" data-name="Path 5547" d="M-585.014,717.775a3.657,3.657,0,0,1-.173.493,1.544,1.544,0,0,1-1.362.876c-.047,0-.094,0-.141,0h-14.668a1.576,1.576,0,0,1-1.593-1.177,1.806,1.806,0,0,1-.056-.451q0-4.7,0-9.4a1.576,1.576,0,0,1,1.633-1.626q7.36,0,14.72,0a1.572,1.572,0,0,1,1.61,1.289.676.676,0,0,0,.03.082Zm-16.153-10.217c.055.058.09.1.126.133l6.524,6.544a.626.626,0,0,0,1.016,0l6.524-6.544c.036-.036.069-.074.119-.129Zm-.01,10.518h14.333l-4.523-4.483c-.034.033-.081.075-.125.12-.438.44-.875.881-1.315,1.319a1.663,1.663,0,0,1-2.405,0c-.266-.264-.529-.531-.794-.8l-.646-.645Zm-.77-.8,4.5-4.458-4.5-4.464Zm15.862.035v-8.916l-4.5,4.453Z" transform="translate(603.009 -706.494)" fill="#066759"/>
      </g>
    </g>
  </g>
</svg>
