<svg xmlns="http://www.w3.org/2000/svg" width="120" height="120" viewBox="0 0 120 120">
  <g id="no-charge-for-registration" transform="translate(-493 -885)">
    <circle id="Ellipse_1992" data-name="Ellipse 1992" cx="60" cy="60" r="60" transform="translate(493 885)" fill="#def4e9"/>
    <circle id="Ellipse_1999" data-name="Ellipse 1999" cx="50" cy="50" r="50" transform="translate(503 895)" fill="#a1f6cc"/>
    <g id="Group_5291" data-name="Group 5291" transform="translate(1284.5 352.146)">
      <g id="Group_5290" data-name="Group 5290" transform="translate(-757.5 566.854)">
        <path id="Path_5519" data-name="Path 5519" d="M-757.5,576.213a8.188,8.188,0,0,1,.7-1.33,2.718,2.718,0,0,1,2.289-.987c4.2,0,8.391,0,12.587.012a.7.7,0,0,0,.737-.484c.5-.952,1.063-1.875,1.652-2.776a.7.7,0,0,1,1.094-.2.722.722,0,0,1,.077,1.148,8.923,8.923,0,0,0-2.082,5.846,8.96,8.96,0,0,0,7.976,8.795,8.911,8.911,0,0,0,9.574-6.551,8.5,8.5,0,0,0-2.862-9.147,8.6,8.6,0,0,0-9.541-1.292c-.373.16-.725.32-1.079,0a.755.755,0,0,1,.286-1.3,10.182,10.182,0,0,1,8.737-.191,10.162,10.162,0,0,1,5.525,5.656.693.693,0,0,0,.772.5c4.077-.015,8.155.043,12.231-.03a3.065,3.065,0,0,1,3.33,3.3q-.068,19.058,0,38.116c.005,1.751-.54,2.98-2.254,3.556h-47.508a3.271,3.271,0,0,1-2.233-2.233Zm50.452,7.691c-.184-.014-.316-.032-.448-.032-5.142,0-10.284-.013-15.425,0a1.092,1.092,0,0,0-.708.353,10.443,10.443,0,0,1-15.724.015.989.989,0,0,0-.823-.367q-7.611.016-15.222.008c-.179,0-.359.016-.578.027v.591q0,15.578,0,31.155c0,1.243.427,1.668,1.673,1.668h45.566c1.274,0,1.69-.42,1.69-1.7V583.9Zm-48.926-1.58h15.256a10.838,10.838,0,0,1-1.1-6.905h-12.5a3.524,3.524,0,0,0-.556.025,1.219,1.219,0,0,0-1.093,1.206C-755.985,578.527-755.974,580.4-755.974,582.324Zm33.67,0h15.256c0-1.8,0-3.555,0-5.312,0-1.129-.464-1.588-1.607-1.588q-5.985,0-11.97,0c-.177,0-.355.015-.581.025A10.8,10.8,0,0,1-722.3,582.32Z" transform="translate(757.5 -566.854)" fill="#066759"/>
        <path id="Path_5520" data-name="Path 5520" d="M-592.933,610.535c-.828,0-1.656.008-2.484,0a1.734,1.734,0,0,1-1.8-1.783c-.018-1.284-.012-2.568,0-3.852a1.7,1.7,0,0,1,1.259-1.752c.284-.093.311-.236.314-.473a14.856,14.856,0,0,1,.067-1.87,2.662,2.662,0,0,1,2.668-2.241,2.661,2.661,0,0,1,2.621,2.236,13.836,13.836,0,0,1,.068,1.819c0,.273.027.443.358.546a1.668,1.668,0,0,1,1.214,1.68c.014,1.3.018,2.6,0,3.9a1.738,1.738,0,0,1-1.848,1.789C-591.311,610.54-592.122,610.535-592.933,610.535Zm0-1.522c.727,0,1.455-.021,2.18.008.43.017.607-.1.595-.564-.028-1.115-.02-2.231,0-3.347.006-.383-.109-.551-.516-.547-1.5.015-3.009.012-4.513,0-.358,0-.521.11-.515.5.017,1.149.019,2.3,0,3.448-.007.412.157.524.542.512C-594.423,609-593.679,609.012-592.935,609.012Zm1.174-6c0-.665.036-1.273-.01-1.874a1.042,1.042,0,0,0-1.127-1,1.078,1.078,0,0,0-1.2.985c-.051.615-.011,1.238-.011,1.885Z" transform="translate(618.923 -594.27)" fill="#066759"/>
        <path id="Path_5521" data-name="Path 5521" d="M-695.815,847.385q-7.969,0-15.937,0a4.054,4.054,0,0,1-3.783-1.921,4.5,4.5,0,0,1,2.018-6.549,5.345,5.345,0,0,1,1.739-.278q15.963-.024,31.925-.009a4,4,0,0,1,4.062,2.539,4.747,4.747,0,0,1-.928,5.09,3.8,3.8,0,0,1-2.347,1.082c-.336.034-.676.039-1.014.039Q-687.948,847.387-695.815,847.385Zm0-1.523c5.329,0,10.659-.027,15.988.012a2.844,2.844,0,0,0,2.679-4.091,2.7,2.7,0,0,0-2.78-1.633q-10.278.008-20.556,0c-3.773,0-7.546-.01-11.319,0a2.806,2.806,0,0,0-2.787,3.806,2.644,2.644,0,0,0,2.837,1.9Q-703.784,845.866-695.815,845.862Z" transform="translate(721.802 -801.843)" fill="#066759"/>
        <path id="Path_5522" data-name="Path 5522" d="M-695.695,753.789q7.943,0,15.886,0a3.974,3.974,0,0,1,3.95,2.233,4.623,4.623,0,0,1-.4,4.945,3.6,3.6,0,0,1-2.847,1.54c-1.012.058-2.029.034-3.044.026a.707.707,0,0,1-.791-.733.73.73,0,0,1,.808-.778c.812-.017,1.624-.024,2.436,0a2.789,2.789,0,0,0,2.745-3.748,2.6,2.6,0,0,0-2.441-1.95c-.1-.006-.2-.006-.3-.006h-32.077a2.573,2.573,0,0,0-2.562,1.482,3.011,3.011,0,0,0,.29,3.214,2.385,2.385,0,0,0,1.813.984c.286.024.575.022.862.022h24.464c.152,0,.3,0,.457,0,.608.013.921.279.917.774s-.309.746-.932.746q-12.663,0-25.326,0a3.973,3.973,0,0,1-4.136-2.991,4.566,4.566,0,0,1,1.686-5.088,4.52,4.52,0,0,1,2.561-.664Q-703.689,753.792-695.695,753.789Z" transform="translate(721.724 -728.484)" fill="#066759"/>
        <path id="Path_5523" data-name="Path 5523" d="M-657.607,780.6h13.247a3.824,3.824,0,0,1,.557.015.677.677,0,0,1,.621.633.676.676,0,0,1-.475.8,2.125,2.125,0,0,1-.648.075q-13.3.005-26.595,0a2.259,2.259,0,0,1-.65-.068.673.673,0,0,1-.468-.8.651.651,0,0,1,.607-.639,4.742,4.742,0,0,1,.558-.013Z" transform="translate(683.595 -751.666)" fill="#066759"/>
        <path id="Path_5524" data-name="Path 5524" d="M-570.121,655.4a.717.717,0,0,1-.72-.75.694.694,0,0,1,.75-.757.691.691,0,0,1,.7.761A.719.719,0,0,1-570.121,655.4Z" transform="translate(596.106 -642.114)" fill="#066759"/>
        <path id="Path_5525" data-name="Path 5525" d="M-642.434,866.994a.732.732,0,0,1-.706-.773.714.714,0,0,1,.781-.74.731.731,0,0,1,.684.789A.737.737,0,0,1-642.434,866.994Z" transform="translate(658.619 -825.06)" fill="#066759"/>
        <path id="Path_5526" data-name="Path 5526" d="M-497.961,866.995a.739.739,0,0,1-.737-.745.729.729,0,0,1,.758-.768.715.715,0,0,1,.709.763A.729.729,0,0,1-497.961,866.995Z" transform="translate(533.727 -825.061)" fill="#066759"/>
        <path id="Path_5527" data-name="Path 5527" d="M-671.275,866.995a.724.724,0,0,1-.742-.732.714.714,0,0,1,.686-.78.7.7,0,0,1,.763.749A.716.716,0,0,1-671.275,866.995Z" transform="translate(683.587 -825.062)" fill="#066759"/>
        <path id="Path_5528" data-name="Path 5528" d="M-612.792,866.248a.716.716,0,0,1-.728.743.73.73,0,0,1-.725-.752.72.72,0,0,1,.759-.761A.7.7,0,0,1-612.792,866.248Z" transform="translate(633.635 -825.058)" fill="#066759"/>
        <path id="Path_5529" data-name="Path 5529" d="M-583.844,866.254a.736.736,0,0,1-.738.743.724.724,0,0,1-.719-.8.7.7,0,0,1,.754-.709A.722.722,0,0,1-583.844,866.254Z" transform="translate(608.609 -825.063)" fill="#066759"/>
        <path id="Path_5530" data-name="Path 5530" d="M-555.76,866.992a.735.735,0,0,1-.711-.768.722.722,0,0,1,.778-.744.706.706,0,0,1,.678.785A.716.716,0,0,1-555.76,866.992Z" transform="translate(583.681 -825.06)" fill="#066759"/>
        <path id="Path_5531" data-name="Path 5531" d="M-526.752,865.485a.717.717,0,0,1,.711.758.732.732,0,0,1-.723.754.719.719,0,0,1-.729-.791A.7.7,0,0,1-526.752,865.485Z" transform="translate(558.625 -825.065)" fill="#066759"/>
        <path id="Path_5532" data-name="Path 5532" d="M-468.96,865.486a.712.712,0,0,1,.715.752.728.728,0,0,1-.715.76.717.717,0,0,1-.734-.785A.694.694,0,0,1-468.96,865.486Z" transform="translate(508.649 -825.066)" fill="#066759"/>
      </g>
    </g>
  </g>
</svg>
