<svg xmlns="http://www.w3.org/2000/svg" width="44" height="44" viewBox="0 0 44 44">
  <g id="phone" transform="translate(-230 -2043)">
    <rect id="Rectangle_745" data-name="Rectangle 745" width="44" height="44" rx="22" transform="translate(230 2043)" fill="#def4e9"/>
    <rect id="Rectangle_746" data-name="Rectangle 746" width="36" height="36" rx="18" transform="translate(234 2047)" fill="#a1f6cc"/>
    <g id="Group_5344" data-name="Group 5344" transform="translate(683.939 1836.904)">
      <g id="Group_5343" data-name="Group 5343" transform="translate(-440.94 219.096)">
        <path id="Path_5546" data-name="Path 5546" d="M-435,226.014a13.076,13.076,0,0,0,5.163,5.163c.269-.273.519-.533.777-.786s.5-.5.776-.731a1.708,1.708,0,0,1,2.25.028c.894.852,1.768,1.726,2.616,2.625a1.732,1.732,0,0,1,.032,2.358,23.119,23.119,0,0,1-1.794,1.829,2.949,2.949,0,0,1-2.326.663,11.153,11.153,0,0,1-4.463-1.57,18.448,18.448,0,0,1-4.592-3.6,18.1,18.1,0,0,1-3.813-5.926,7.814,7.814,0,0,1-.564-2.563,3.066,3.066,0,0,1,.845-2.342c.507-.516,1-1.055,1.542-1.528a1.752,1.752,0,0,1,2.558.035c.865.809,1.694,1.66,2.5,2.527a1.705,1.705,0,0,1,.008,2.308c-.428.486-.9.932-1.357,1.395A1.334,1.334,0,0,1-435,226.014Zm7.778,10.079a2.029,2.029,0,0,0,1.6-.648c.391-.4.785-.8,1.177-1.2a2.692,2.692,0,0,0,.212-.237.741.741,0,0,0-.019-1.007c-.064-.077-.133-.149-.2-.22q-.648-.65-1.3-1.3c-.3-.3-.587-.6-.889-.885a.716.716,0,0,0-1.054-.026c-.066.056-.128.119-.19.181-.429.427-.854.858-1.286,1.282a.82.82,0,0,1-1.027.169c-.261-.132-.523-.264-.775-.414a13.438,13.438,0,0,1-3-2.49,10.8,10.8,0,0,1-1.981-2.819.916.916,0,0,1,.243-1.268c.452-.439.905-.878,1.339-1.334a.7.7,0,0,0,.014-1.039c-.048-.057-.1-.112-.152-.165q-1.058-1.06-2.116-2.12a.8.8,0,0,0-1.312-.009c-.435.43-.879.852-1.292,1.3a2.423,2.423,0,0,0-.475.727,3.074,3.074,0,0,0-.039,1.771,10.735,10.735,0,0,0,.94,2.593,17.713,17.713,0,0,0,2.752,3.992,17.3,17.3,0,0,0,6.92,4.776A6.312,6.312,0,0,0-427.224,236.094Z" transform="translate(440.94 -219.096)" fill="#066759"/>
      </g>
    </g>
  </g>
</svg>
